<svg width="13" height="13" viewBox="0 0 13 13" fill="none" xmlns="http://www.w3.org/2000/svg">
<path d="M2.75591 4.15417H0.240723V12.4468H2.75591V4.15417Z" fill="black"/>
<path d="M1.48555 3.06592C2.30516 3.06592 2.9711 2.38054 2.9711 1.53296C2.9711 0.685385 2.30516 0 1.48555 0C0.665936 0 0 0.685385 0 1.53296C0 2.38054 0.665936 3.06592 1.48555 3.06592Z" fill="black"/>
<path d="M6.77186 8.09385C6.77186 6.92713 7.29948 6.23128 8.30351 6.23128C9.22557 6.23128 9.67124 6.89573 9.67124 8.09385V12.4468H12.1711V7.19396C12.1711 4.97038 10.9365 3.89783 9.21533 3.89783C7.49414 3.89783 6.76674 5.2686 6.76674 5.2686V4.14896H4.354V12.4416H6.76674V8.08862L6.77186 8.09385Z" fill="black"/>
</svg>
