<svg width="14" height="14" viewBox="0 0 14 14" fill="none" xmlns="http://www.w3.org/2000/svg">
<path d="M6.65935 1.22428C8.43688 1.22428 8.64691 1.22951 9.3487 1.26613C9.99927 1.29752 10.3527 1.40739 10.5832 1.50157C10.8957 1.62714 11.116 1.77363 11.3465 2.00907C11.5821 2.24974 11.7256 2.47471 11.8434 2.78863C11.9356 3.0293 12.0432 3.3903 12.0739 4.04953C12.1046 4.76631 12.1149 4.98082 12.1149 6.7963C12.1149 8.61179 12.1098 8.8263 12.0739 9.54308C12.0432 10.2075 11.9356 10.5685 11.8434 10.804C11.7205 11.1231 11.577 11.3481 11.3465 11.5888C11.116 11.8242 10.8906 11.9759 10.5832 12.0963C10.3476 12.1904 9.99414 12.3003 9.3487 12.3317C8.64691 12.3631 8.43688 12.3736 6.65935 12.3736C4.88182 12.3736 4.67179 12.3683 3.97 12.3317C3.31943 12.3003 2.96597 12.1904 2.73546 12.0963C2.42298 11.9707 2.20271 11.8242 1.96707 11.5888C1.73655 11.3481 1.588 11.1231 1.47018 10.804C1.37797 10.5633 1.2704 10.2023 1.23966 9.54308C1.20893 8.8263 1.19868 8.61179 1.19868 6.7963C1.19868 4.98082 1.2038 4.76631 1.23966 4.04953C1.2704 3.38507 1.37797 3.02407 1.47018 2.78863C1.59312 2.46948 1.73655 2.24451 1.96707 2.00907C2.20271 1.7684 2.42298 1.6219 2.73546 1.50157C2.97109 1.40739 3.32455 1.29752 3.97 1.26613C4.67179 1.23474 4.88182 1.22428 6.65935 1.22428ZM6.65935 0C4.85108 0 4.62569 0.0104639 3.91365 0.0418556C3.20673 0.0732473 2.72009 0.18835 2.29491 0.355773C1.85437 0.528427 1.48555 0.763865 1.11672 1.14056C0.747896 1.51727 0.51738 1.8992 0.348335 2.34391C0.184413 2.77817 0.071715 3.26997 0.0409796 3.99721C0.0102441 4.72445 0 4.95466 0 6.80153C0 8.64841 0.00512156 8.87862 0.0409796 9.60586C0.071715 10.3279 0.184413 10.8249 0.348335 11.2592C0.51738 11.7039 0.747896 12.0858 1.11672 12.4625C1.48555 12.8392 1.85949 13.0746 2.29491 13.2473C2.72009 13.4147 3.20161 13.5298 3.91365 13.5612C4.62569 13.5926 4.85108 13.6031 6.65935 13.6031C8.46762 13.6031 8.69301 13.5978 9.40505 13.5612C10.112 13.5298 10.5986 13.4147 11.0238 13.2473C11.4643 13.0746 11.8331 12.8392 12.202 12.4625C12.5708 12.0858 12.8013 11.7039 12.9704 11.2592C13.1343 10.8249 13.247 10.3331 13.2777 9.60586C13.3085 8.87862 13.3187 8.64841 13.3187 6.80153C13.3187 4.95466 13.3136 4.72445 13.2777 3.99721C13.247 3.2752 13.1343 2.77817 12.9704 2.34391C12.8013 1.8992 12.5708 1.51727 12.202 1.14056C11.8331 0.763865 11.4592 0.528427 11.0238 0.355773C10.5986 0.18835 10.1171 0.0732473 9.40505 0.0418556C8.69301 0.0104639 8.46762 0 6.65935 0Z" fill="black"/>
<path d="M6.65919 3.31177C4.76896 3.31177 3.2373 4.87612 3.2373 6.80671C3.2373 8.7373 4.76896 10.3017 6.65919 10.3017C8.54942 10.3017 10.0811 8.7373 10.0811 6.80671C10.0811 4.87612 8.54942 3.31177 6.65919 3.31177ZM6.65919 9.07214C5.43489 9.07214 4.44111 8.05715 4.44111 6.80671C4.44111 5.55627 5.43489 4.54128 6.65919 4.54128C7.88348 4.54128 8.87726 5.55627 8.87726 6.80671C8.87726 8.05715 7.88348 9.07214 6.65919 9.07214Z" fill="black"/>
<path d="M11.0138 3.17055C11.0138 3.6205 10.6552 3.98674 10.2146 3.98674C9.77411 3.98674 9.41553 3.6205 9.41553 3.17055C9.41553 2.72061 9.77411 2.35437 10.2146 2.35437C10.6552 2.35437 11.0138 2.72061 11.0138 3.17055Z" fill="black"/>
</svg>
